HIERARCHY
ROOT Hips
{
 OFFSET 0.000000 0.000000 0.000000
 CHANNELS 6 Xposition Yposition Zposition Yrotation Xrotation Zrotation
 JOINT Chest
 {
  OFFSET 0.000000 9.585900 0.002600
  CHANNELS 3 Yrotation Xrotation Zrotation
  JOINT Chest2
  {
   OFFSET 0.000000 9.601200 -0.005300
   CHANNELS 3 Yrotation Xrotation Zrotation
   JOINT Chest3
   {
    OFFSET 0.000000 9.561800 0.000000
    CHANNELS 3 Yrotation Xrotation Zrotation
    JOINT Chest4
    {
     OFFSET 0.000000 9.552100 0.000000
     CHANNELS 3 Yrotation Xrotation Zrotation
     JOINT Neck
     {
      OFFSET 0.000000 14.453000 0.000000
      CHANNELS 3 Yrotation Xrotation Zrotation
      JOINT Head
      {
       OFFSET 0.000000 8.936500 -0.011300
       CHANNELS 3 Yrotation Xrotation Zrotation
       End Site
       {
        OFFSET 0.000000 17.073600 -0.006000
       }
      }
     }
     JOINT RightCollar
     {
      OFFSET -2.921100 9.558500 0.000000
      CHANNELS 3 Yrotation Xrotation Zrotation
      JOINT RightShoulder
      {
       OFFSET -13.519700 0.000000 0.000000
       CHANNELS 3 Yrotation Xrotation Zrotation
       JOINT RightElbow
       {
        OFFSET 0.000000 -29.696600 0.000000
        CHANNELS 3 Yrotation Xrotation Zrotation
        JOINT RightWrist
        {
         OFFSET 0.000000 -24.004700 0.000000
         CHANNELS 3 Yrotation Xrotation Zrotation
         End Site
         {
          OFFSET 0.000000 -17.728500 0.000000
         }
        }
       }
      }
     }
     JOINT LeftCollar
     {
      OFFSET 2.921100 9.558500 0.000000
      CHANNELS 3 Yrotation Xrotation Zrotation
      JOINT LeftShoulder
      {
       OFFSET 13.519700 0.000000 0.000000
       CHANNELS 3 Yrotation Xrotation Zrotation
       JOINT LeftElbow
       {
        OFFSET 0.000000 -29.696600 0.000000
        CHANNELS 3 Yrotation Xrotation Zrotation
        JOINT LeftWrist
        {
         OFFSET 0.000000 -24.004700 0.000000
         CHANNELS 3 Yrotation Xrotation Zrotation
         End Site
         {
          OFFSET 0.000000 -17.728500 0.000000
         }
        }
       }
      }
     }
    }
   }
  }
 }
 JOINT RightHip
 {
  OFFSET -7.771700 -0.012900 -0.001300
  CHANNELS 3 Yrotation Xrotation Zrotation
  JOINT RightKnee
  {
   OFFSET 0.000000 -40.869800 0.001200
   CHANNELS 3 Yrotation Xrotation Zrotation
   JOINT RightAnkle
   {
    OFFSET 0.000000 -39.717900 0.002100
    CHANNELS 3 Yrotation Xrotation Zrotation
    JOINT RightToe
    {
     OFFSET 0.000000 -4.965400 11.033500
     CHANNELS 3 Yrotation Xrotation Zrotation
     End Site
     {
      OFFSET 0.000000 -1.423100 5.872300
     }
    }
   }
  }
 }
 JOINT LeftHip
 {
  OFFSET 7.771700 -0.012900 -0.001300
  CHANNELS 3 Yrotation Xrotation Zrotation
  JOINT LeftKnee
  {
   OFFSET 0.000000 -40.869800 0.001200
   CHANNELS 3 Yrotation Xrotation Zrotation
   JOINT LeftAnkle
   {
    OFFSET 0.000000 -39.717900 0.002100
    CHANNELS 3 Yrotation Xrotation Zrotation
    JOINT LeftToe
    {
     OFFSET 0.000000 -4.965400 11.033500
     CHANNELS 3 Yrotation Xrotation Zrotation
     End Site
     {
      OFFSET 0.000000 -1.423100 5.872300
     }
    }
   }
  }
 }
}
MOTION
Frames: 5
Frame Time: 0.008333
0.000000 85.388000 0.000000 0.000000 -5.767877 0.000000 0.000000 11.653817 0.000000 0.000000 -5.885947 0.000000 0.000000 -0.000000 0.000000 0.000000 -0.000000 0.000000 0.000000 12.528835 0.000000 0.000000 0.711642 0.000000 0.000000 -0.000000 0.000000 0.000000 0.000000 -90.000000 0.000000 -2.309062 0.000000 0.000000 2.309062 0.000000 0.000000 -0.000000 0.000000 0.000000 -0.000000 90.000000 0.000000 -2.309062 0.000000 0.000000 2.309062 0.000000 0.000000 8.520406 0.000000 0.000000 1.905762 0.000000 -0.000000 -4.658285 0.000000 0.000000 -0.000000 0.000000 0.000000 8.520406 0.000000 0.000000 1.905762 0.000000 -0.000000 -4.658285 0.000000 0.000000 -0.000000 0.000000
-101.517660 62.109956 18.748504 175.776662 -49.499788 -0.937788 5.390558 25.528334 1.540780 0.753533 4.162962 0.226176 1.218187 6.590844 0.384531 4.118269 20.898719 1.770636 -3.831166 18.617502 0.121678 -7.042291 -1.184915 1.463035 4.444558 3.456543 5.011217 3.004651 -14.201059 -15.576674 -83.377804 -48.874465 127.649046 0.931559 3.482298 11.085743 -7.683328 -0.589918 1.513275 -16.681418 -8.639227 16.151080 99.266763 -66.450591 -130.357781 5.671307 -1.066821 -7.657172 4.006274 -17.260160 -4.979800 -4.105573 60.060737 -8.752542 0.453192 -4.805813 11.208384 0.339003 -0.818296 0.156629 -6.684600 -13.756384 1.033846 33.710594 74.513924 36.577105 2.605224 -11.455407 -7.353822 0.375797 0.867363 0.181285
-101.515461 62.109890 18.749790 175.777221 -49.467558 -0.945462 5.386757 25.535294 1.543813 0.753104 4.163512 0.226238 1.216578 6.594176 0.384744 4.113130 20.933488 1.776064 -3.807168 18.529725 0.130604 -7.034539 -1.233542 1.465815 4.435050 3.412255 4.998521 2.976171 -14.174981 -15.572414 -83.378529 -48.902545 127.640059 0.930590 3.480674 11.037042 -7.662770 -0.576368 1.502412 -16.678120 -8.704153 16.139083 99.146418 -66.454647 -130.199701 5.673261 -1.053181 -7.631730 3.990299 -17.290956 -4.973896 -4.091234 60.054713 -8.743285 0.458093 -4.810608 11.202847 0.335495 -0.811457 0.155808 -6.691845 -13.786975 1.043469 33.714038 74.511471 36.587494 2.584365 -11.458030 -7.360796 0.356038 0.871555 0.180553
-101.513808 62.111642 18.749590 175.775980 -49.443408 -0.946182 5.382658 25.549825 1.540935 0.752555 4.163397 0.226233 1.209539 6.634233 0.387230 4.120174 20.865953 1.766100 -3.765665 18.487070 0.173501 -6.967990 -1.410554 1.504649 4.401110 3.455034 5.003248 2.951511 -14.150131 -15.559987 -83.397181 -48.935984 127.660933 0.931902 3.481643 10.995967 -7.658033 -0.543107 1.498461 -16.667874 -8.722594 16.110057 99.040457 -66.462179 -130.053156 5.672694 -1.038629 -7.603887 3.988697 -17.313736 -4.973547 -4.090316 60.052853 -8.741341 0.458383 -4.808810 11.203904 0.336282 -0.813149 0.152428 -6.695620 -13.809267 1.046666 33.721844 74.508152 36.597935 2.568451 -11.454562 -7.361152 0.340936 0.869766 0.176543
-101.512957 62.114427 18.748440 175.759508 -49.422573 -0.928624 5.387390 25.548365 1.531543 0.749545 4.182337 0.224541 1.209692 6.633242 0.387272 4.115970 20.866990 1.768331 -3.733172 18.430008 0.188921 -6.907817 -1.541623 1.544349 4.404601 3.426432 4.993324 2.905338 -14.092257 -15.536498 -83.411438 -48.970860 127.657856 0.932019 3.481038 10.959236 -7.643804 -0.538773 1.491848 -16.623374 -8.675222 15.970307 99.130722 -66.565281 -130.137592 5.642737 -1.043270 -7.624366 3.992959 -17.332358 -4.981481 -4.080271 60.049154 -8.729899 0.449830 -4.809478 11.206438 0.346989 -0.809318 0.144022 -6.699442 -13.821894 1.038629 33.746595 74.494286 36.617325 2.550558 -11.460417 -7.351808 0.357053 0.877880 0.160649
